<svg xmlns="http://www.w3.org/2000/svg" width="256" height="256"><path fill-opacity=".016" d="M0 128.004v128.004l128.25-.254 128.25-.254.254-127.75L257.008 0H0v128.004m.485.496c0 70.4.119 99.053.265 63.672.146-35.38.146-92.98 0-128C.604 29.153.485 58.1.485 128.5" fill="#1976D2" fill-rule="evenodd"/><path fill-opacity=".466" d="M170.076 76.12c-22.103 4.638-48.253 17.051-63.33 30.059-4.565 3.94-5.878 4.64-6.357 3.393-1.041-2.713-2.109-1.727-2.798 2.583-.861 5.383-1.441 6.214-3.277 4.691-1.23-1.021-1.679-.946-2.437.41-.545.974-1.643 1.437-2.653 1.119-1.191-.375-.979.114.686 1.581 2.814 2.48 3.473 1.727-9.66 11.029-5.638 3.993-10.25 7.655-10.25 8.138 0 1.622 2.824.895 5.673-1.461 1.555-1.286 6.539-4.923 11.077-8.083 7.188-5.006 8.25-5.477 8.25-3.662 0 2.176 1.438 2.801 2.498 1.087.391-.634 1.599-.488 3.314.399 3.591 1.857 8.611 2.314 10.313.939.756-.611 2.838-1.424 4.625-1.806 1.815-.388 3.25-1.322 3.25-2.115 0-.909-1.172-1.47-3.25-1.557-1.787-.074.067-.483 4.122-.908 5.398-.565 9.364-1.757 14.814-4.451 4.094-2.023 7.687-4.314 7.986-5.092.298-.777 1.362-1.413 2.364-1.413 1.001 0 2.416-.586 3.143-1.302.726-.716 3.519-2.36 6.205-3.654s5.076-3.087 5.311-3.985c.235-.898 2.762-2.462 5.616-3.476C177.368 94.302 185 86.946 185 79.607c0-3.005-.457-3.83-2.565-4.632-1.411-.536-2.648-.943-2.75-.904-.102.039-4.426.961-9.609 2.049M54 164.5V178h8.5c8.4 0 8.5-.029 8.5-2.5 0-2.364-.3-2.5-5.5-2.5H60v-22h-6v13.5m67.135-4.458c-3.446 4.972-6.119 9.81-5.941 10.75.254 1.33 1.594 1.774 6.066 2.008 5.343.279 5.74.469 5.74 2.75 0 2.056.483 2.45 3 2.45 2.533 0 3-.389 3-2.5 0-1.556.567-2.5 1.5-2.5s1.5-.944 1.5-2.5-.567-2.5-1.5-2.5c-1.216 0-1.5-1.611-1.5-8.5V151h-2.8c-2.397 0-3.699 1.298-9.065 9.042M140 164.5V178h2.461c2.405 0 2.468-.199 2.75-8.75l.289-8.75 5.385 8.75c5.046 8.199 5.597 8.75 8.75 8.75H163v-27h-2.461c-2.405 0-2.468.199-2.75 8.75l-.289 8.75-5.385-8.75c-5.046-8.199-5.597-8.75-8.75-8.75H140v13.5m51.872-9.25c-.659 1.238-1.913 2.813-2.785 3.5-1.441 1.135-1.426 1.375.163 2.61 1.327 1.032 1.75 2.836 1.75 7.461 0 4.989.399 6.473 2.189 8.14 3.686 3.434 9.811 2.455 9.811-1.568 0-1.992-.502-2.393-3-2.393-2.965 0-3-.063-3-5.434 0-5.179.128-5.448 2.741-5.75 1.654-.19 2.874-1.011 3.074-2.066.258-1.359-.355-1.75-2.742-1.75-2.611 0-3.073-.376-3.073-2.5 0-3.25-3.441-3.418-5.128-.25m-20.795 4.339c-2.744 2.308-3.077 3.18-3.077 8.045 0 4.435.452 5.909 2.414 7.871 3.063 3.063 6.878 4.023 11.473 2.888 2.731-.675 3.696-1.478 3.952-3.291.325-2.303.158-2.373-4.204-1.776-3.55.487-4.922.246-6.277-1.101-1.643-1.634-1.395-1.751 4.704-2.225 5.82-.452 6.47-.725 6.77-2.845 1.201-8.486-8.898-13.336-15.755-7.566m-95.622.866C73.558 162.351 73 163.958 73 167.52c0 5.645 1.178 8.004 4.98 9.97 3.682 1.904 5.403 1.897 9.48-.038 5.406-2.565 7.345-10.369 3.848-15.479-2.435-3.559-3.265-3.941-8.603-3.958-3.771-.012-5.32.51-7.25 2.44m21.446-.356c-1.64 1.64-1.949 2.788-1.416 5.25.967 4.459.714 10.852-.476 12.042-1.514 1.514-1.215 5.26.562 7.038 1.103 1.102 3.49 1.571 8 1.571 7.42 0 10.429-2.004 10.429-6.943 0-3.759-3.127-6.027-8.473-6.147l-4.027-.09 3.5-.995c4.614-1.312 7-3.568 7-6.62 0-1.366.744-3.028 1.653-3.693 3.072-2.247.474-3.512-7.212-3.512-6.225 0-7.784.343-9.54 2.099m27.34 4.413L121.982 168h2.509c2.201 0 2.509-.43 2.509-3.5 0-1.925-.112-3.494-.25-3.488-.138.007-1.267 1.582-2.509 3.5m-43.67-.941c-2.021 2.021-2.021 6.837 0 8.858 3.103 3.102 5.884 1.01 5.884-4.429s-2.781-7.531-5.884-4.429m21.019.056c-.793 2.065 1.108 4.426 2.983 3.707 2.216-.851 1.824-5.334-.466-5.334-1.041 0-2.174.732-2.517 1.627m73.41-.193c0 1.083.951 1.566 3.083 1.566 3.826 0 3.483-2.356-.41-2.816-1.894-.225-2.673.139-2.673 1.25m-74.869 15.908c-1.508 1.818-.429 2.658 3.413 2.658 3.743 0 6.495-2.387 3.9-3.383-2.693-1.033-6.137-.692-7.313.725" fill="#1976D2" fill-rule="evenodd"/><path fill-opacity=".5" d="M145 85.395c-13.958 4.89-30.534 14.654-39.356 23.184-3.62 3.499-5.065 4.358-5.674 3.373-.566-.917-1.085-.269-1.692 2.113-.513 2.017-1.784 3.843-3.076 4.422-2.186.98-2.817 2.565-1.533 3.849.368.367 1.38.047 2.25-.712 3.713-3.24 31.299-19.921 43.081-26.05 13.197-6.865 17.787-10.049 16.382-11.362-1.724-1.61-2.743-1.494-10.382 1.183m8.5 6.12c-1.65.764-5.025 2.29-7.5 3.392-8.804 3.922-26.048 13.908-40.204 23.282l-9.276 6.142 3.99 1.76c4.983 2.199 8.107 2.349 8.845.426.401-1.046 1.428-1.31 3.486-.899 1.671.334 3.207.113 3.597-.517.406-.657-.105-1.101-1.268-1.101-1.072 0-3.011-.9-4.309-2l-2.361-1.999 6.617.624c4.963.468 7.963.184 12-1.137 6.988-2.286 13.883-6.301 13.883-8.083 0-.837 1.024-1.405 2.531-1.405 1.393 0 2.771-.625 3.064-1.388.293-.763 1.852-1.651 3.465-1.974 4.13-.826 8.39-3.742 6.854-4.691-1.943-1.201-.23-4.182 1.997-3.475 2.831.898 3.343-.871 1.42-4.903-1.87-3.922-2.428-4.09-6.831-2.054M55 164.5V177h7c3.85 0 7.338.08 7.75.179.412.098.891-.553 1.063-1.448.256-1.326-.762-1.683-5.5-1.929L59.5 173.5v-10.751c0-10.483-.056-10.751-2.25-10.75-2.213.001-2.25.205-2.25 12.501m66.648-4.25c-7.308 10.66-7.301 11.564.102 11.95 5.008.261 5.79.577 6.056 2.448.169 1.181 1.181 2.377 2.25 2.656 1.542.404 1.944-.008 1.944-1.991 0-1.659.673-2.676 2-3.023 1.107-.29 2-1.364 2-2.407 0-1.216-.708-1.883-2-1.883-1.833 0-2-.667-2-8 0-7.728-.08-8-2.348-8-1.817 0-3.626 1.865-8.004 8.25M140 164.5V177h2.461c2.405 0 2.468-.199 2.75-8.75l.289-8.75 2.455 4c8.747 14.255 8.702 14.204 11.972 13.724l3.073-.451V152h-2.461c-2.405 0-2.468.199-2.75 8.75l-.289 8.75-5.385-8.75c-5.046-8.199-5.597-8.75-8.75-8.75H140v12.5m53-9.539c0 .529-1.012 1.908-2.25 3.065-2.087 1.952-2.123 2.175-.5 3.089 1.403.789 1.75 2.355 1.75 7.9 0 7.651 1.369 9.424 6.791 8.797 3.67-.425 4.382-3.812.801-3.812-2.954 0-3.917-2.425-3.412-8.595.28-3.422.66-3.944 3.07-4.221 3.845-.443 3.63-3.184-.25-3.184-2.333 0-3-.444-3-2 0-1.111-.667-2-1.5-2-.825 0-1.5.432-1.5.961m-116.424 5.372c-2.072 2.072-2.576 3.542-2.576 7.511 0 7.183 2.305 9.656 9 9.656 6.612 0 9.011-2.501 8.978-9.361-.031-6.412-2.36-9.202-8.235-9.864-3.976-.449-4.936-.173-7.167 2.058M98 160c-2.109 2.109-2.716 7.439-.969 8.519 1.089.673.24 7.593-1.04 8.481-2.032 1.409-1.997 4.994.07 7.061 1.844 1.844 3.019 2.101 7.967 1.743 6.922-.5 8.972-1.941 8.972-6.304 0-4.127-1.429-5.283-7.02-5.681-4.884-.348-5.727-2.119-1.261-2.649 3.889-.462 7.532-4.079 6.985-6.936-.261-1.368.168-2.623 1.07-3.128 2.988-1.672.064-3.106-6.333-3.106-5.108 0-6.855.414-8.441 2m73 .23c-2.615 2.808-3.394 5.855-2.591 10.139.791 4.212 3.328 6.552 7.913 7.296 5.097.827 8.678-.28 8.678-2.684 0-1.09-.115-1.981-.257-1.981-.141 0-1.701.414-3.466.921-2.611.748-3.684.547-5.753-1.081-3.567-2.806-2.346-3.84 4.535-3.84H186v-3.5c0-4.973-2.851-7.5-8.461-7.5-3.327 0-4.989.567-6.539 2.23m-47.315 3.791L120.87 168h3.565c3.492 0 3.565-.081 3.565-4 0-2.2-.338-3.99-.75-3.979-.412.012-2.017 1.812-3.565 4m-22.687-1.017c-.858 1.602-.844 2.476.055 3.56 2.79 3.361 7.562.224 5.249-3.45-1.536-2.44-4.03-2.492-5.304-.11m74.202-.804c-2.262 2.262-1.332 3.8 2.3 3.8 2.205 0 3.5-.481 3.5-1.3 0-1.587-1.999-3.7-3.5-3.7-.605 0-1.64.54-2.3 1.2m-95.843 2.377c-1.257 1.919-1.454 3.235-.773 5.147 2.196 6.161 7.677 5.398 8.231-1.145.545-6.448-4.19-8.988-7.458-4.002m21.393 13.503c-4.449 2.591.886 6.318 5.824 4.068 3.045-1.387 3.136-3.724.176-4.518-3.036-.813-3.948-.745-6 .45" fill="#1976D2" fill-rule="evenodd"/><path fill-opacity=".642" d="M55 164.5V177h7.5c6 0 7.5-.3 7.5-1.5 0-1.152-1.278-1.5-5.5-1.5H59v-11c0-10.333-.121-11-2-11-1.893 0-2 .667-2 12.5m67.097-3.976c-3.353 4.688-6.097 9.188-6.097 10 0 1.137 1.377 1.476 6 1.476 5.733 0 6 .111 6 2.5 0 1.833.533 2.5 2 2.5s2-.667 2-2.5.533-2.5 2-2.5c1.1 0 2-.623 2-1.383 0-.761-.9-1.619-2-1.907-1.792-.468-2-1.364-2-8.616 0-7.29-.189-8.094-1.903-8.094-1.245 0-4.011 2.948-8 8.524M141 164.5c0 11.976.087 12.5 2.071 12.5 1.965 0 2.055-.461 1.75-9.002-.177-4.952-.059-9.002.261-9 .319.001 2.069 2.365 3.887 5.252 7.664 12.172 8.171 12.75 11.167 12.75H163v-25h-5.199l.35 9.001c.192 4.95.048 9-.319 9-.368-.001-1.685-1.688-2.926-3.751-6.961-11.565-9.128-14.25-11.503-14.25H141v12.5m52-9.008c0 .82-.9 2.053-2 2.74-2.367 1.479-2.6 2.768-.5 2.768 1.168 0 1.5 1.341 1.5 6.066 0 8.185 1.063 9.934 6.035 9.934 2.181 0 3.965-.45 3.965-1s-.81-1-1.8-1c-3.08 0-4.2-2.186-4.2-8.2 0-5.52.121-5.8 2.5-5.8 1.556 0 2.5-.567 2.5-1.5s-.944-1.5-2.5-1.5c-1.833 0-2.5-.533-2.5-2 0-1.111-.667-2-1.5-2a1.5 1.5 0 0 0-1.5 1.492m-113.643 3.5c-5.331 2.151-7.115 10.503-3.284 15.373 1.721 2.189 2.88 2.635 6.845 2.635 5.221 0 7.352-1.553 8.442-6.152 1.091-4.6-.381-8.89-3.756-10.948-3.376-2.058-4.964-2.233-8.247-.908m20.643.295c-2.68 1.349-4.054 7.059-2.155 8.958 1.285 1.285.217 7.835-1.568 9.621-3.824 3.824 1.291 8.506 8.514 7.794 5.185-.512 8.209-3 8.209-6.756 0-3.421-.636-3.837-7.022-4.593-6.291-.745-6.664-3.422-.613-4.405 4.332-.704 5.864-2.349 5.293-5.681-.235-1.372.248-2.633 1.218-3.175 2.218-1.242 1.418-1.68-4.376-2.4-3.21-.399-5.895-.171-7.5.637m72.08.463c-3.734 3.052-4.029 12.158-.507 15.68 2.192 2.192 13.427 2.241 13.427.058 0-1.205-.816-1.381-4.026-.868-4.474.716-7.974-1.38-7.974-4.775 0-1.604.849-1.845 6.5-1.845 6.298 0 6.5-.079 6.5-2.545 0-6.06-8.982-9.741-13.92-5.705m-47.775 2.507c-3.848 5.684-3.922 6.743-.471 6.743 3.614 0 3.871-.322 4.309-5.42.427-4.973-1.028-5.474-3.838-1.323m-22.734-.686c-3.215 3.216-.76 8.259 3.381 6.944 2.323-.737 2.853-5.31.848-7.315-1.581-1.581-2.343-1.515-4.229.371m73.084.258c-2.767 3.057-2.007 4.171 2.845 4.171 4.938 0 5.539-.961 2.5-4-2.467-2.467-3.245-2.492-5.345-.171m-95 1C76.164 166.686 78.568 175 83.174 175c4.399 0 6.604-9.081 2.997-12.345-2.377-2.151-4.462-2.095-6.516.174m20.012 14.838c-1.524 1.524-.523 4.437 1.833 5.333 4.568 1.737 11.089-2.747 7.396-5.086-1.638-1.036-8.262-1.214-9.229-.247" fill="#1976D2" fill-rule="evenodd"/></svg>